<svg width="459" height="349" viewBox="0 0 459 349" fill="none" xmlns="http://www.w3.org/2000/svg">
<path d="M31.7857 333.506C-27.6413 272.739 -1.9175 178.437 113.198 156.954C228.313 135.471 253.144 6.62918 357.825 33.5248C462.506 60.3646 502.291 258.231 394.82 333.506H31.7857Z" fill="#FFF8F8"/>
<path d="M39.0957 317.882H31.7859V134.579H39.0957V317.882Z" fill="#3B364D"/>
<path d="M308.051 333.506C308.051 336.128 331.32 338.304 360.057 338.304C388.794 338.304 412.118 336.128 412.118 333.506C412.118 330.827 388.794 328.651 360.057 328.651C331.32 328.651 308.051 330.827 308.051 333.506Z" fill="#FFE5E2"/>
<path d="M65.9906 338.639C65.9906 344.108 111.3 348.572 167.156 348.572C223.012 348.572 268.266 344.108 268.266 338.639C268.266 333.115 223.012 328.651 167.156 328.651C111.3 328.651 65.9906 333.115 65.9906 338.639Z" fill="#FFE5E2"/>
<path d="M302.304 146.743H443.366C450.006 146.743 455.363 141.386 455.363 134.746V12.4324C455.363 5.79222 450.006 0.435425 443.366 0.435425H302.304C295.664 0.435425 290.307 5.79222 290.307 12.4324V134.746C290.307 141.386 295.664 146.743 302.304 146.743Z" fill="#AAB2C8"/>
<path d="M301.467 134.69H444.203V12.5441H301.467V134.69Z" fill="#E0E7FF"/>
<path d="M372.835 12.5441V134.69" stroke="#AAB2C8" stroke-width="2" stroke-miterlimit="10"/>
<path d="M301.467 73.5892H444.203" stroke="#AAB2C8" stroke-width="2" stroke-miterlimit="10"/>
<path opacity="0.5" d="M381.763 12.5441L429.584 134.579H408.436L360.057 12.5441H381.763Z" fill="white"/>
<path opacity="0.5" d="M344.767 12.5441L392.588 134.579H371.44L323.061 12.5441H344.767Z" fill="white"/>
<path d="M4.55515 141.107H145.06V127.994H4.55515V141.107Z" fill="#773C4D"/>
<path d="M4.55511 141.107H94.1699V127.994H4.55511V141.107Z" fill="#965363"/>
<path d="M42.9463 127.994H114.649C117.104 127.994 119.113 125.985 119.113 123.53V111.477C119.113 109.022 117.104 106.958 114.649 106.958H42.9463V127.994Z" fill="#61648A"/>
<path d="M41.7185 123.586H113.589V111.422H41.7185V123.586Z" fill="#EDF1FC"/>
<path d="M62.4755 123.586H113.812V111.422H62.4755V123.586Z" fill="#E0E7FF"/>
<path d="M54.7197 106.958H126.367C128.878 106.958 130.887 104.949 130.887 102.438V90.4408C130.887 87.9298 128.878 85.921 126.367 85.921H54.7197V106.958Z" fill="#FFC55A"/>
<path d="M53.6599 102.549H125.53V90.385H53.6599V102.549Z" fill="#EDF1FC"/>
<path d="M73.8595 102.549H125.53V90.385H73.8595V102.549Z" fill="#E0E7FF"/>
<path d="M38.4814 85.921H110.129C112.64 85.921 114.648 83.9122 114.648 81.4012V69.4042C114.648 66.8932 112.64 64.8844 110.129 64.8844H38.4814V85.921Z" fill="#AF2F48"/>
<path d="M37.1989 81.457H109.069V69.3484H37.1989V81.457Z" fill="#EDF1FC"/>
<path d="M60.8576 81.457H109.292V69.3484H60.8576V81.457Z" fill="#E0E7FF"/>
<path d="M118.276 236.414C118.164 252.093 119.671 266.992 123.688 280.44C123.726 280.44 123.744 280.44 123.744 280.44C135.072 318.049 166.599 343.94 240.31 341.541C340.416 338.304 358.606 245.23 366.976 158.238C373.784 87.6508 352.58 35.7011 288.856 18.6263C274.069 14.6087 256.939 12.5441 237.353 12.5441C147.292 12.5441 118.666 176.875 118.276 236.414Z" fill="#FFC55A"/>
<path d="M123.744 280.44C135.072 318.049 166.599 343.94 240.31 341.541C340.416 338.304 358.606 245.23 366.976 158.238C373.784 87.6508 352.58 35.701 288.856 18.6262C343.596 51.9388 357.156 112.705 334.78 205.166C312.46 297.57 256.046 324.466 219.497 324.522C183.004 324.578 137.136 312.636 123.744 280.44Z" fill="#F49947"/>
<path d="M262.686 99.7594C334.11 112.482 302.974 214.428 287.182 242.998C271.391 271.568 264.639 305.382 228.202 306.889C191.764 308.396 145.171 291.823 140.651 279.826C136.132 267.773 156.778 205.11 156.778 205.11C156.778 205.11 159.623 141.721 179.377 125.093C199.13 108.408 238.971 95.5744 262.686 99.7594Z" fill="#F49947"/>
<path d="M167.156 271.735C180.158 296.12 224.63 304.657 239.864 300.807C248.792 298.575 259.561 290.428 269.326 278.71C275.576 267.717 280.598 254.883 287.182 242.998C289.637 238.534 292.483 232.284 295.273 224.807C300.686 198.637 300.518 167.556 290.307 156.954C276.413 142.614 262.965 132.458 261.96 123.586C261.235 116.611 269.159 107.348 267.54 100.82C266.015 100.41 264.397 100.057 262.686 99.7594C243.156 96.2998 212.689 104.391 191.541 116.667C189.476 124.423 189.309 134.746 184.51 138.094C177.144 143.228 165.705 175.48 162.86 190.602C159.958 205.724 167.156 271.735 167.156 271.735Z" fill="#F27C49"/>
<path d="M70.1758 310.404C69.6178 319.556 43.057 307.893 39.5416 302.816C39.5416 302.816 54.1054 344.554 61.6384 344.554C69.2272 344.554 89.8174 322.792 89.8174 322.792L87.3622 310.404H70.1758Z" fill="#AF2F48"/>
<path d="M61.6388 344.554C69.8972 348.069 49.307 296.176 39.542 297.347C29.777 298.519 51.0368 339.978 61.6388 344.554Z" fill="#D35473"/>
<path d="M67.0507 250.308C67.5529 277.148 74.528 310.404 74.528 310.404H91.7144C91.7144 310.404 102.261 287.75 107.227 264.983C108.454 259.236 109.347 253.488 109.626 248.132C109.626 248.132 136.299 256.167 162.022 251.368C172.736 249.359 184.9 245.955 195.447 242.663C210.178 238.032 221.784 233.624 221.784 233.624L220.891 232.508L202.087 208.737L151.532 201.148L145.617 200.255L109.626 211.415C77.7644 214.875 66.4927 223.412 67.0507 250.308Z" fill="#31344C"/>
<path opacity="0.5" d="M107.227 264.983C108.454 259.236 109.347 253.489 109.626 248.132C109.626 248.132 136.299 256.167 162.022 251.368C172.736 249.359 184.9 245.956 195.447 242.663L220.891 232.508L223.123 231.671L227.364 214.038L172.959 195.066L151.532 201.148L115.541 211.415C124.246 226.984 106.725 245.509 102.93 251.033C99.0801 256.613 88.1433 247.63 81.2241 251.033C74.3049 254.437 101.703 252.819 107.227 264.983Z" fill="#232433"/>
<path d="M97.0713 325.415C89.2035 342.601 77.4855 350.804 71.2359 348.069L73.9701 319.556L85.2975 314.701L97.0713 325.415Z" fill="#AF2F48"/>
<path d="M71.236 348.069C85.1302 350.413 82.5635 323.462 81.7823 310.404C81.0011 297.347 70.0643 298.519 68.8925 308.675C67.7207 318.774 61.8616 346.507 71.236 348.069Z" fill="#D35473"/>
<path d="M85.2977 314.701L97.0715 325.415C145.394 311.465 173.852 267.439 173.852 267.439C200.692 298.575 230.768 305.55 254.93 267.439C254.93 267.439 253.423 250.531 233.781 237.474C229.987 234.907 225.523 232.508 220.222 230.443C199.241 222.129 171.341 220.511 154.155 220.399C143.776 220.343 134.067 225.421 128.041 233.847C117.941 248.188 108.287 265.876 100.754 281.11C91.4357 299.803 85.2977 314.701 85.2977 314.701Z" fill="#383952"/>
<path opacity="0.5" d="M85.2977 314.701L97.0715 325.415C145.394 311.465 173.852 267.438 173.852 267.438C200.692 298.575 230.768 305.55 254.93 267.438C254.93 267.438 253.423 250.531 233.781 237.474L213.526 233.679C237.185 280.105 180.381 269.28 170.114 260.854C159.846 252.372 150.193 243.891 145.618 243.389C141.042 242.942 165.203 260.798 148.129 281.109C131.11 301.421 91.8263 314.087 100.754 281.109C91.4357 299.802 85.2977 314.701 85.2977 314.701Z" fill="#232433"/>
<path d="M203.036 83.5217H203.761C203.761 83.5217 210.904 110.919 223.124 121.131C225.3 122.972 227.7 124.256 230.211 124.758C246.672 127.771 261.012 109.022 263.746 96.1324C265.253 88.9342 262.575 84.5261 259.896 82.0709C257.832 80.0621 255.767 79.2809 255.767 79.2809C255.767 79.2809 254.651 59.0255 247.62 59.3603C240.813 59.6951 241.929 62.4293 242.04 62.5967C241.594 62.0387 226.807 42.3971 216.651 44.5175C206.272 46.6937 213.526 61.9271 213.526 61.9271C213.526 61.9271 200.525 48.7025 196.173 56.2913C191.82 63.8801 204.654 73.1429 204.654 73.1429C204.654 73.1429 193.606 72.9755 192.546 76.9373C191.43 80.8991 193.048 84.7493 203.036 83.5217Z" fill="#6D3744"/>
<path d="M223.124 121.131C225.3 122.972 227.7 124.256 230.211 124.758C246.672 127.771 261.012 109.022 263.746 96.1325C265.253 88.9343 262.575 84.5261 259.896 82.0709C257.441 85.2515 254.205 91.6127 246.727 83.5217H243.212L223.124 121.131Z" fill="#542633"/>
<path d="M179.376 202.655L254.595 272.349C258.222 269.057 261.402 265.653 264.192 262.082C269.27 255.497 272.953 248.411 275.576 241.101C277.529 235.577 278.868 229.885 279.761 224.082C281.825 210.913 281.546 197.075 280.709 183.348C278.756 151.263 269.047 129.836 230.489 129.278C230.489 129.278 212.856 124.311 199.743 131.398C189.476 136.922 182.78 177.824 180.381 195.066C179.711 199.697 179.376 202.655 179.376 202.655Z" fill="#61648A"/>
<path opacity="0.4" d="M195.391 170.904C235.009 185.747 251.358 156.954 251.358 156.954L264.192 202.989L236.795 211.415L189.086 206.449L195.391 170.904Z" fill="#383952"/>
<path opacity="0.4" d="M179.377 202.655L254.595 272.349C258.222 269.057 261.403 265.653 264.193 262.082C251.08 261.077 223.012 229.774 230.378 228.155C236.962 226.705 259.729 242.161 275.576 241.101C277.529 235.577 278.868 229.885 279.761 224.082L255.599 202.99L180.381 195.066C179.711 199.697 179.377 202.655 179.377 202.655Z" fill="#383952"/>
<path d="M221.785 193.392C212.912 187.421 202.645 192.387 199.018 195.066C195.335 197.688 199.018 204.663 199.018 204.663C199.018 204.663 202.98 202.32 204.319 201.985C205.658 201.706 212.02 206.672 224.742 204.663C237.464 202.655 221.785 193.392 221.785 193.392Z" fill="#F4B8AB"/>
<path d="M273.399 151.765C256.045 138.82 246.225 150.147 247.062 172.467C247.899 194.843 247.899 194.843 247.899 194.843C247.899 194.843 225.802 187.756 220.445 187.756C220.445 187.756 219.943 203.045 220.445 208.514C220.445 208.514 247.117 234.349 264.75 236.302C282.383 238.311 278.868 203.436 280.43 187.366C281.992 171.295 279.37 156.229 273.399 151.765Z" fill="#61648A"/>
<path d="M202.087 205.724L188.918 152.49C187.579 147.078 182.724 143.228 177.144 143.228H101.759C96.7923 143.228 93.1653 147.915 94.3929 152.714L109.626 208.346L202.087 205.724Z" fill="#C3C9F4"/>
<path d="M196.785 205.724L183.672 152.49C182.333 147.078 177.423 143.228 171.843 143.228H96.4568C91.4906 143.228 87.8636 147.915 89.0912 152.714L104.325 208.346L196.785 205.724Z" fill="#E0E7FF"/>
<path d="M126.087 211.025H222.007C223.458 211.025 224.686 209.797 224.686 208.346C224.686 206.895 223.458 205.724 222.007 205.724H126.087C124.636 205.724 123.464 206.895 123.464 208.346C123.464 209.797 124.636 211.025 126.087 211.025Z" fill="#C3C9F4"/>
<path d="M103.488 211.025H199.409C200.859 211.025 202.087 209.797 202.087 208.346C202.087 206.895 200.859 205.724 199.409 205.724H103.488C102.038 205.724 100.866 206.895 100.866 208.346C100.866 209.797 102.038 211.025 103.488 211.025Z" fill="#E0E7FF"/>
<path d="M135.573 175.647C136.856 182.567 139.981 187.812 142.548 187.31C145.17 186.863 146.286 180.837 145.003 173.918C143.719 166.998 140.595 161.753 137.972 162.255C135.405 162.758 134.289 168.728 135.573 175.647Z" fill="#C3C9F4"/>
<path d="M198.739 87.9857C197.065 112.482 200.971 123.363 214.865 124.758V130.45C214.865 134.69 218.325 138.094 222.566 138.094C226.751 138.094 230.21 134.69 230.21 130.45V124.758C230.21 124.758 241.314 120.015 243.546 113.04C245.778 106.065 243.546 111.924 243.546 111.924L244.551 83.5217H198.348L198.739 87.9857Z" fill="#F4B8AB"/>
<path d="M242.877 101.266C246.392 94.8491 250.466 97.5275 251.303 101.266C252.14 104.949 244.718 113.989 242.877 110.808C241.035 107.627 242.877 101.266 242.877 101.266Z" fill="#F4B8AB"/>
<path d="M250.521 80.3968C243.1 89.4364 221.952 94.1794 214.307 92.0032C206.663 89.827 217.544 82.7404 217.544 82.7404C217.544 82.7404 203.315 92.5054 196.842 89.269C190.369 85.9768 207.835 78.0532 207.835 78.0532L250.521 80.3968Z" fill="#6D3744"/>
<path d="M225.244 99.7595C225.244 101.099 225.467 102.159 225.746 102.159C226.025 102.159 226.248 101.099 226.248 99.7595C226.248 98.4761 226.025 97.4159 225.746 97.4159C225.467 97.4159 225.244 98.4761 225.244 99.7595Z" stroke="#191918" stroke-width="4" stroke-miterlimit="10"/>
<path d="M210.178 99.7595C210.178 101.099 210.401 102.159 210.68 102.159C210.959 102.159 211.238 101.099 211.238 99.7595C211.238 98.4761 210.959 97.4159 210.68 97.4159C210.401 97.4159 210.178 98.4761 210.178 99.7595Z" stroke="#191918" stroke-width="4" stroke-miterlimit="10"/>
<path d="M216.204 113.04C223.458 113.207 229.038 107.962 229.038 107.962" stroke="#E56A85" stroke-width="2" stroke-miterlimit="10" stroke-linecap="round"/>
<g opacity="0.5">
<path d="M214.865 124.758C221.059 125.316 228.201 125.093 228.201 125.093L214.865 130.449V124.758Z" fill="#DD6595"/>
</g>
<g opacity="0.5">
<path d="M243.211 102.996C246.336 99.7036 247.899 101.043 247.675 104.447C247.452 107.85 243.379 110.306 242.04 109.301C240.7 108.353 243.211 102.996 243.211 102.996Z" fill="#DD6595"/>
</g>
<path d="M365.303 273.632C379.197 268.499 386.786 270.507 391.026 264.872C391.026 264.872 379.755 262.863 373.505 264.872L365.303 273.632Z" fill="#7C9E1E"/>
<path d="M373.505 264.872C390.356 256.055 395.323 246.067 399.619 239.204C403.916 232.285 406.259 226.593 407.933 226.091C409.607 225.644 401.07 227.318 392.979 235.354C384.888 243.445 381.54 244.672 375.123 251.089C368.706 257.506 363.014 266.936 362.289 273.632H365.302L373.505 264.872Z" fill="#B7AC15"/>
<path d="M368.706 262.472C377.801 248.522 369.654 240.487 380.591 224.696C393.425 206.17 389.407 187.589 387.51 175.982C387.51 175.982 390.356 189.542 379.196 202.71C368.036 215.879 357.099 221.013 356.151 240.654C355.202 260.352 358.996 273.632 358.996 273.632H365.302L368.706 262.472Z" fill="#7C9E1E"/>
<path d="M360.448 273.632C363.517 260.519 357.546 238.255 357.1 216.102C356.598 194.006 368.985 177.656 350.683 156.954C350.683 156.954 354.477 160.749 349.232 175.982C343.987 191.16 332.381 207.119 338.072 227.541C343.764 247.964 356.04 264.704 355.984 273.632H360.448Z" fill="#B7AC15"/>
<path d="M355.984 273.632C357.881 257.897 341.866 233.456 328.307 227.988C328.307 227.988 326.912 240.041 335.673 249.806C344.489 259.626 351.018 273.632 351.018 273.632H355.984Z" fill="#A88F14"/>
<path d="M351.018 273.632C350.404 263.198 341.42 259.515 332.157 256.836C332.157 256.836 343.317 268.108 345.214 273.632H351.018Z" fill="#426313"/>
<path opacity="0.4" d="M346.665 274.804C345.102 266.88 341.531 264.425 342.201 263.979C342.815 263.532 346.888 270.173 348.953 273.632C348.953 273.632 351.631 264.593 347.558 256.836C343.54 249.08 339.69 243.221 339.69 243.221C339.69 243.221 352.747 258.343 353.417 265.988C353.417 265.988 354.812 258.287 352.524 248.355C350.292 238.478 344.433 228.992 346.553 217.274C348.729 205.556 351.017 193.001 351.017 193.001C351.017 193.001 350.069 204.942 348.953 215.265C347.781 225.644 350.85 231.057 353.863 242.105C356.82 253.154 355.146 268.889 356.43 268.778C357.713 268.722 359.778 271.623 359.778 271.623C359.778 271.623 361.117 254.716 363.126 240.264C365.19 225.867 364.967 223.914 373.728 215.265C382.544 206.672 383.66 201.427 383.66 201.427C383.66 201.427 377.745 213.201 372.779 220.901C367.869 228.546 366.306 231.95 366.306 245.453C366.306 259.013 365.637 266.601 364.521 268.778C363.349 270.954 372.835 255.944 380.312 250.81C387.734 245.676 393.816 238.701 394.485 237.585C395.155 236.469 387.287 250.643 381.428 254.493C375.569 258.343 365.302 271.4 365.302 271.4L382.098 266.88L363.126 274.804H346.665Z" fill="#426313"/>
<path d="M331.711 277.817L340.639 329.209C340.751 329.842 340.955 330.4 341.253 330.883C342.201 332.446 343.875 333.506 345.773 333.506H377.858C380.369 333.506 382.545 331.664 382.935 329.153L391.305 277.762C391.863 274.581 389.408 271.735 386.228 271.735H336.845C333.608 271.735 331.209 274.637 331.711 277.817Z" fill="#3A3852"/>
<path opacity="0.5" d="M341.253 330.883C342.201 332.446 343.875 333.506 345.773 333.506H377.858C380.369 333.506 382.545 331.664 382.935 329.153L391.305 277.762C391.863 274.581 389.408 271.735 386.228 271.735H369.209C384.944 296.176 358.718 324.578 341.253 330.883Z" fill="#232433"/>
<path d="M287.182 242.998C280.598 254.883 275.576 267.717 269.326 278.71C276.19 270.563 282.551 260.687 287.517 249.806C290.642 242.886 293.32 234.182 295.273 224.807C292.483 232.284 289.638 238.534 287.182 242.998Z" fill="#FFC55A"/>
</svg>
